<?xml version="1.0" standalone="no"?>
<!DOCTYPE svg PUBLIC "-//W3C//DTD SVG 1.1//EN" "http://www.w3.org/Graphics/SVG/1.1/DTD/svg11.dtd" >
<svg xmlns="http://www.w3.org/2000/svg">
<metadata></metadata>
<defs>
<font id="open_sansextrabold" horiz-adv-x="1200" >
<font-face units-per-em="2048" ascent="1638" descent="-410" />
<missing-glyph horiz-adv-x="532" />
<glyph horiz-adv-x="0" />
<glyph unicode="&#xd;" horiz-adv-x="1044" />
<glyph horiz-adv-x="0" />
<glyph horiz-adv-x="0" />
<glyph unicode=" "  horiz-adv-x="532" />
<glyph unicode="&#x09;" horiz-adv-x="532" />
<glyph unicode="&#xa0;" horiz-adv-x="532" />
<glyph unicode="!" horiz-adv-x="594" d="M82 1462h432l-51 -946h-330zM86 166q0 91 54 141.5t157 50.5t155 -50.5t52 -141.5t-54 -141t-153 -50q-100 0 -155.5 50t-55.5 141z" />
<glyph unicode="&#x22;" horiz-adv-x="1073" d="M121 1462h356l-41 -528h-274zM596 1462h356l-41 -528h-274z" />
<glyph unicode="#" horiz-adv-x="1356" d="M37 391v254h274l31 168h-238v260h287l72 389h268l-74 -389h166l72 389h268l-73 -389h229v-260h-277l-30 -168h243v-254h-290l-74 -391h-268l73 391h-168l-71 -391h-267l72 391h-225zM578 645h165l31 168h-166z" />
<glyph unicode="$" d="M80 1044q0 330 424 373v137h207v-135q197 -10 401 -98l-119 -285q-207 94 -377 94q-80 0 -113 -19.5t-32 -57.5q0 -24 12.5 -42t43 -36t81.5 -38t129 -48q209 -75 300 -169t91 -243q0 -169 -106 -273.5t-311 -129.5v-193h-207v187q-110 5 -215 29t-207 69v332 q115 -59 252 -99q136 -39 239 -39q85 0 124.5 20.5t39.5 68.5q0 24 -15.5 43t-51 38.5t-93.5 42t-143 54.5q-64 24 -115 50t-90 55q-39 30 -67 62t-46.5 69.5t-27 82t-8.5 98.5z" />
<glyph unicode="%" horiz-adv-x="1942" d="M37 1026q0 110 25 195t73 143.5t117 88.5t158 30q174 0 278 -123q103 -122 103 -334q0 -110 -25 -195.5t-74 -144.5t-120 -90t-162 -31q-173 0 -273 124t-100 337zM338 1022q0 -115 19 -166t57 -51t56.5 50t18.5 167q0 115 -18.5 166t-56.5 51q-39 0 -57.5 -51.5 t-18.5 -165.5zM412 0l811 1462h297l-811 -1462h-297zM1149 444q0 110 25 195t73 143.5t117 88.5t158 30q174 0 278 -123q103 -122 103 -334q0 -219 -100 -340q-99 -120 -281 -120q-173 0 -273 124t-100 336zM1450 440q0 -115 19 -166t57 -51q43 0 59.5 58.5t16.5 158.5 t-16.5 158.5t-59.5 58.5q-39 0 -57.5 -51.5t-18.5 -165.5z" />
<glyph unicode="&#x26;" horiz-adv-x="1636" d="M72 406q2 132 68.5 231.5t203.5 169.5q-62 70 -96.5 148.5t-34.5 177.5q0 159 123 254q124 94 340 94q210 0 328 -94t118 -254q0 -112 -63 -205.5t-201 -177.5l199 -189q76 117 104 260h406q-15 -69 -39 -138t-56 -139q-65 -139 -145 -237l320 -307h-506l-99 102 q-89 -56 -148 -79q-57 -21 -128 -31.5t-164 -11.5q-119 -1 -217 30.5t-168 88.5t-108.5 135.5t-36.5 171.5zM475 434q0 -32 11.5 -58t33 -45t52 -29.5t67.5 -10.5q57 0 100 15t66 34l-248 252q-82 -61 -82 -158zM565 1120q0 -76 88 -155q57 32 87 76t30 92q0 49 -28.5 70.5 t-71.5 21.5q-42 0 -73.5 -25t-31.5 -80z" />
<glyph unicode="'" horiz-adv-x="598" d="M121 1462h356l-41 -528h-274z" />
<glyph unicode="(" horiz-adv-x="735" d="M74 582q0 292 70.5 523.5t209.5 397.5h326q-127 -177 -194 -412q-68 -239 -68 -507q0 -261 66 -496q65 -232 194 -412h-324q-138 159 -209 387.5t-71 518.5z" />
<glyph unicode=")" horiz-adv-x="735" d="M55 1503h326q140 -167 210.5 -402t70.5 -519t-71 -514.5t-210 -391.5h-324q125 171 193 408q67 235 67 500q0 266 -65.5 501.5t-196.5 417.5z" />
<glyph unicode="*" horiz-adv-x="1100" d="M45 1014l45 291l348 -101l-39 352h303l-38 -352l356 101l37 -295l-314 -21l207 -278l-260 -138l-143 283l-123 -281l-272 136l206 278z" />
<glyph unicode="+" horiz-adv-x="1159" d="M72 588v268h372v367h269v-367h372v-268h-372v-361h-269v361h-372z" />
<glyph unicode="," horiz-adv-x="633" d="M57 -285q14 69 29 146t29 163q15 87 25.5 155t15.5 120h342l14 -23q-49 -192 -92.5 -331t-83.5 -230h-279z" />
<glyph unicode="-" horiz-adv-x="651" d="M43 393v312h565v-312h-565z" />
<glyph unicode="." horiz-adv-x="592" d="M86 166q0 93 54 142.5t159 49.5q100 0 152.5 -49.5t52.5 -142.5q0 -91 -54 -141t-151 -50q-100 0 -156.5 50t-56.5 141z" />
<glyph unicode="/" horiz-adv-x="905" d="M10 -20l545 1503h346l-545 -1503h-346z" />
<glyph unicode="0" d="M72 729q0 391 130 572q131 182 398 182q261 0 394.5 -189.5t133.5 -564.5q0 -388 -130 -569q-131 -180 -398 -180q-263 0 -395.5 187.5t-132.5 561.5zM465 729q0 -249 31 -341q31 -93 104 -93q74 0 104 96q31 94 31 338t-31 340q-32 98 -104 98q-73 0 -104 -94 q-31 -93 -31 -344z" />
<glyph unicode="1" d="M84 1053l502 409h356v-1462h-401v774q0 141 6 258q-19 -23 -41 -46.5t-51 -47.5l-166 -137z" />
<glyph unicode="2" d="M45 1249q57 51 104.5 86.5t85.5 57.5q78 45 167.5 66.5t203.5 23.5q106 1 196 -29t155 -83.5t101.5 -127t35.5 -160.5q-2 -87 -22.5 -159t-65.5 -144q-44 -69 -120 -148q-74 -78 -317 -296v-10h553v-326h-1061v260l357 361q78 79 127.5 134t72.5 84q24 30 40 54.5 t25.5 47t14 43.5t4.5 44q0 57 -37 90t-104 33q-69 0 -139.5 -39.5t-159.5 -116.5z" />
<glyph unicode="3" d="M70 59v328q97 -49 195.5 -72.5t183.5 -23.5q130 0 189.5 36.5t59.5 114.5q0 44 -17 74.5t-54.5 49t-96.5 26.5t-143 8h-90v297h92q301 0 301 154q0 58 -44.5 86t-119.5 28q-141 0 -290 -94l-164 264q115 79 237 114q120 34 279 34q227 0 356 -90t129 -248 q0 -137 -82.5 -233.5t-240.5 -141.5v-6q366 -47 366 -346q0 -204 -162 -321q-161 -117 -448 -117q-60 0 -114 4.5t-105 12.5t-104.5 23.5t-112.5 38.5z" />
<glyph unicode="4" d="M35 283v290l608 889h365v-884h161v-295h-161v-283h-390v283h-583zM377 578h241v170q0 48 3 129q4 81 6 86h-11q-17 -38 -35.5 -74.5t-41.5 -69.5z" />
<glyph unicode="5" d="M94 59v324q88 -41 196 -66q112 -26 189 -26q111 0 169.5 46.5t58.5 137.5q0 85 -59.5 131.5t-182.5 46.5q-91 0 -201 -35l-145 72l55 772h834v-329h-498l-18 -193q39 8 66.5 11.5t44.5 4.5t32 1.5t29 0.5q94 1 175.5 -33t141 -96.5t93 -149.5t32.5 -192 q-2 -245 -148.5 -376t-445.5 -131q-257 0 -418 79z" />
<glyph unicode="6" d="M70 618q0 229 49.5 392.5t146.5 268t240 153.5t330 51q45 0 96.5 -4.5t111.5 -12.5v-309q-98 19 -217 19q-198 0 -295 -87t-106 -284h12q90 170 289 170q194 0 302 -126t108 -349q0 -242 -136 -381t-380 -139q-260 0 -405 168q-146 169 -146 470zM463 512q0 -96 41 -158 q40 -61 108 -61q63 0 102.5 47.5t39.5 151.5q0 178 -138 178q-68 0 -111 -46q-42 -47 -42 -112z" />
<glyph unicode="7" d="M78 1133v327h1055v-233l-515 -1227h-409l502 1133h-633z" />
<glyph unicode="8" d="M68 385q0 128 61 216q61 90 205 163q-117 78 -170 167t-53 197q0 168 131 261q130 94 362 94q231 0 359 -93q129 -93 129 -264q0 -116 -60.5 -203.5t-191.5 -152.5q161 -91 228 -184q67 -91 67 -197q0 -196 -141 -302q-142 -107 -394 -107q-258 0 -395 104.5t-137 300.5z M430 401q0 -63 44 -100t122 -37q176 0 176 129q0 48 -39 96q-20 24 -53.5 51t-83.5 56q-89 -47 -127.5 -94.5t-38.5 -100.5zM481 1092q0 -86 117 -152q72 41 97 75q26 35 26 77q0 24 -9.5 43.5t-25.5 33.5t-38 21.5t-46 7.5q-26 0 -48 -7.5t-38 -21.5t-25.5 -33.5 t-9.5 -43.5z" />
<glyph unicode="9" d="M53 958q0 243 138 381q139 138 380 138q268 0 415 -178q147 -179 147 -506q0 -428 -185 -621q-185 -192 -592 -192q-67 0 -118 2.5t-86 7.5v313q43 -8 86 -12t86 -4q212 0 327 87.5t125 276.5h-12q-39 -72 -77 -104t-93 -49t-137 -17q-191 0 -297 127q-107 128 -107 350z M436 963q0 -82 35 -130.5t107 -48.5q64 0 113 47q48 46 48 113q0 88 -45 153q-43 64 -112 64q-65 0 -105.5 -47t-40.5 -151z" />
<glyph unicode=":" horiz-adv-x="592" d="M86 166q0 93 54 142.5t159 49.5q100 0 152.5 -49.5t52.5 -142.5q0 -91 -54 -141t-151 -50q-100 0 -156.5 50t-56.5 141zM86 956q0 91 55 141t158 50q100 0 152.5 -50t52.5 -141t-54 -141.5t-151 -50.5q-103 0 -158 50.5t-55 141.5z" />
<glyph unicode=";" horiz-adv-x="608" d="M57 -285q14 69 29 146t29 163q15 87 25.5 155t15.5 120h342l14 -23q-49 -192 -92.5 -331t-83.5 -230h-279zM92 956q0 91 53 141t158 50q100 0 153.5 -50t53.5 -141t-53.5 -141.5t-153.5 -50.5q-103 0 -157 50.5t-54 141.5z" />
<glyph unicode="&#x3c;" horiz-adv-x="1159" d="M72 627v172l1011 506v-297l-620 -283l620 -252v-295z" />
<glyph unicode="=" horiz-adv-x="1159" d="M72 358v271h1015v-271h-1015zM72 815v268h1015v-268h-1015z" />
<glyph unicode="&#x3e;" horiz-adv-x="1159" d="M72 178v295l620 252l-620 283v297l1011 -506v-172z" />
<glyph unicode="?" horiz-adv-x="1034" d="M0 1341q248 142 520 142q222 0 350 -98q127 -97 127 -267q0 -60 -14 -112t-43 -97.5t-73.5 -87t-106.5 -80.5q-53 -34 -85.5 -59t-46.5 -41q-26 -32 -26 -74v-51h-307v86q0 98 40 165q41 68 142 132q40 25 69 47.5t47.5 44.5t27 44.5t8.5 49.5q0 42 -38 66.5t-99 24.5 q-150 0 -353 -107zM252 166q0 93 53 142.5t158 49.5q100 0 153.5 -50.5t53.5 -141.5t-55 -141t-152 -50q-100 0 -155.5 49t-55.5 142z" />
<glyph unicode="@" horiz-adv-x="1837" d="M82 610q0 253 114 453q116 201 316 309q202 109 457 109q233 0 413 -89q181 -90 277 -253t96 -383q0 -139 -49 -263q-49 -123 -134 -191.5t-196 -68.5q-79 0 -143 31t-100 88h-15q-107 -119 -260 -119q-92 0 -162 27.5t-118 79.5t-73 127.5t-26 171.5q-1 106 35.5 193.5 t103.5 150.5t162 97.5t211 33.5q41 -1 85 -5t93 -12t93.5 -19t85.5 -25l-21 -422l-2 -94q-2 -86 49 -86q52 0 84 87q33 87 33 220q0 238 -135 369q-68 66 -163 97.5t-220 32.5q-143 1 -257.5 -45t-195.5 -131.5t-124 -206t-42 -268.5q1 -128 35.5 -226t106.5 -168 q142 -138 403 -138q117 0 250.5 25t263.5 71v-229q-225 -95 -500 -95q-389 0 -610 202q-221 203 -221 562zM760 641q0 -100 36.5 -145t96.5 -45q77 0 113 62t47 220l10 156q-41 6 -68 6q-54 0 -97.5 -17t-74 -50t-47 -80t-16.5 -107z" />
<glyph unicode="A" horiz-adv-x="1487" d="M0 0l477 1468h527l483 -1468h-432l-72 274h-475l-74 -274h-434zM590 598h311l-63 240q-11 40 -24.5 91.5t-29.5 115.5t-26 109t-15 73q-9 -51 -36 -168q-13 -59 -42 -173.5t-75 -287.5z" />
<glyph unicode="B" horiz-adv-x="1380" d="M158 0v1462h510q298 0 442.5 -88.5t144.5 -275.5q0 -123 -63 -210t-166 -112v-10q136 -36 197 -120t61 -218q0 -199 -150 -314q-149 -114 -407 -114h-569zM553 305h139q185 0 185 156q0 73 -49.5 112t-143.5 39h-131v-307zM553 901h119q85 0 131.5 35t46.5 104 q0 123 -186 123h-111v-262z" />
<glyph unicode="C" horiz-adv-x="1329" d="M104 727v7q0 166 48 303q50 140 142 239q92 100 224 154q129 53 289 53h6q119 -2 231.5 -26.5t221.5 -76.5l-121 -311q-81 38 -162 64t-174 26q-140 0 -220 -116q-79 -115 -79 -318q0 -422 321 -422q97 0 188 27t183 65v-334q-183 -81 -414 -81q-331 0 -508 192 q-174 191 -176 555z" />
<glyph unicode="D" horiz-adv-x="1503" d="M158 0v1462h506q352 0 543 -180q192 -180 192 -520q0 -366 -202 -564q-201 -198 -566 -198h-473zM553 324h88q180 0 264 104.5t84 319.5q0 202 -79 298.5t-242 96.5h-115v-819z" />
<glyph unicode="E" horiz-adv-x="1124" d="M158 0v1462h868v-317h-473v-230h438v-317h-438v-276h473v-322h-868z" />
<glyph unicode="F" horiz-adv-x="1104" d="M158 0v1462h864v-317h-475v-279h438v-317h-438v-549h-389z" />
<glyph unicode="G" horiz-adv-x="1516" d="M104 735q0 355 202 551q203 197 566 197q139 0 261 -26t213 -66l-125 -310q-158 78 -347 78q-87 0 -154 -28.5t-113.5 -84t-70.5 -136t-24 -185.5q0 -206 85 -313t247 -107q86 0 162 17v229h-261v305h631v-788q-255 -88 -565 -88q-339 0 -523 196t-184 559z" />
<glyph unicode="H" horiz-adv-x="1569" d="M158 0v1462h397v-542h459v542h397v-1462h-397v596h-459v-596h-397z" />
<glyph unicode="I" horiz-adv-x="713" d="M158 0v1462h397v-1462h-397z" />
<glyph unicode="J" horiz-adv-x="721" d="M-162 -131q32 -6 68 -13.5t78 -7.5q98 0 140 59q42 58 42 202v1353h397v-1319q0 -297 -130 -449.5t-390 -152.5q-108 0 -205 21v307z" />
<glyph unicode="K" horiz-adv-x="1407" d="M158 0v1462h397v-635q15 29 45.5 75.5t75.5 111.5l307 448h432l-461 -655l453 -807h-446l-289 559l-117 -70v-489h-397z" />
<glyph unicode="L" horiz-adv-x="1192" d="M158 0v1462h395v-1143h563v-319h-958z" />
<glyph unicode="M" horiz-adv-x="1980" d="M158 0v1462h526l305 -1038h8l299 1038h527v-1462h-363v641v52.5t1 58.5t4.5 105t9.5 194h-9l-295 -1051h-376l-299 1053h-9q21 -269 21 -418v-635h-350z" />
<glyph unicode="N" horiz-adv-x="1708" d="M158 0v1462h516l532 -1016h6q-7 111 -10.5 199.5t-3.5 155.5v661h352v-1462h-518l-534 1030h-9q10 -122 14.5 -214.5t4.5 -156.5v-659h-350z" />
<glyph unicode="O" horiz-adv-x="1632" d="M104 735q0 364 182 557q183 193 531 193q349 0 529 -191t180 -561q0 -369 -181 -561t-530 -192q-344 0 -528 193q-183 193 -183 562zM520 733q0 -424 295 -424q150 0 222.5 103t72.5 321q0 220 -73 324t-220 104q-297 0 -297 -428z" />
<glyph unicode="P" horiz-adv-x="1294" d="M158 0v1462h506q277 0 416 -121t139 -344q0 -246 -145 -379q-143 -133 -410 -133h-111v-485h-395zM553 807h72q90 0 142 50t52 138q0 148 -164 148h-102v-336z" />
<glyph unicode="Q" horiz-adv-x="1632" d="M104 735q0 364 182 557q183 193 531 193q349 0 529 -191t180 -561q0 -498 -316 -670l357 -411h-492l-258 325l-1 1v1l-1 1q-344 0 -528 193q-183 193 -183 562zM520 733q0 -424 295 -424q150 0 222.5 103t72.5 321q0 220 -73 324t-220 104q-297 0 -297 -428z" />
<glyph unicode="R" horiz-adv-x="1386" d="M158 0v1462h479q596 0 596 -432q0 -253 -248 -393l426 -637h-448l-310 532h-100v-532h-395zM553 829h74q207 0 207 183q0 151 -203 151h-78v-334z" />
<glyph unicode="S" horiz-adv-x="1182" d="M90 72v352q57 -29 115.5 -51.5t119.5 -39.5q123 -32 224 -32q88 0 129 30.5t41 78.5q0 29 -17 52q-8 11 -21 23t-32 23q-18 11 -66.5 35t-127.5 59q-144 65 -215 126q-72 61 -106 139.5t-34 187.5q0 202 147 315q148 113 404 113q227 0 463 -105l-121 -305 q-204 94 -354 94q-77 0 -112 -27t-35 -67q0 -42 44 -77q43 -33 242 -124q188 -85 262 -183q74 -99 74 -250q0 -99 -39 -183q-40 -86 -115 -148q-76 -61 -182 -95q-103 -33 -230 -33h-7q-73 1 -134 5.5t-111 14.5q-100 21 -206 72z" />
<glyph unicode="T" horiz-adv-x="1210" d="M51 1139v323h1108v-323h-356v-1139h-395v1139h-357z" />
<glyph unicode="U" horiz-adv-x="1550" d="M150 573v889h397v-858q0 -155 58 -225t171 -70q60 0 103.5 16.5t71.5 52.5t41.5 92.5t13.5 135.5v856h395v-880q0 -288 -163 -445q-161 -157 -468 -157q-300 0 -460 153t-160 440z" />
<glyph unicode="V" horiz-adv-x="1421" d="M0 1462h444l199 -741q33 -124 49 -209.5t19 -134.5q4 35 10.5 78.5t17.5 96.5t20 94t17 71l203 745h442l-479 -1462h-465z" />
<glyph unicode="W" horiz-adv-x="2128" d="M31 1462h381l159 -733q26 -122 45 -218.5t29 -168.5q7 51 18 120t28 157t33 160t30 130l129 553h366l125 -553q15 -67 31.5 -143t33.5 -164t28 -152.5t16 -107.5q7 56 24 151.5t47 233.5l162 735h381l-360 -1462h-467l-140 637q-5 20 -13 59.5t-19 99.5t-18.5 109.5 t-12.5 89.5q-4 -32 -10.5 -72.5t-15.5 -89.5q-18 -96 -36 -177q-8 -41 -44.5 -204t-100.5 -452h-467z" />
<glyph unicode="X" horiz-adv-x="1481" d="M4 0l485 748l-456 714h438l264 -452l254 452h451l-463 -745l498 -717h-457l-285 457l-282 -457h-447z" />
<glyph unicode="Y" horiz-adv-x="1360" d="M0 1462h430l250 -542l252 542h428l-481 -891v-571h-398v559z" />
<glyph unicode="Z" horiz-adv-x="1251" d="M61 0v244l633 899h-618v319h1108v-243l-633 -900h649v-319h-1139z" />
<glyph unicode="[" horiz-adv-x="664" d="M117 -344v1847h499v-254h-182v-1339h182v-254h-499z" />
<glyph unicode="\" horiz-adv-x="905" d="M6 1483h346l545 -1503h-346z" />
<glyph unicode="]" horiz-adv-x="664" d="M47 -90h182v1339h-182v254h500v-1847h-500v254z" />
<glyph unicode="^" horiz-adv-x="1075" d="M-16 502l440 966h170l508 -966h-295l-289 577l-124 -291l-124 -286h-286z" />
<glyph unicode="_" horiz-adv-x="1024" d="M-4 -133h1032v-246h-1032v246z" />
<glyph unicode="`" horiz-adv-x="1225" d="M264 1548v21h430q26 -35 77 -92t126 -141l59 -66v-29h-260q-69 43 -204 138q-67 48 -123.5 90t-104.5 79z" />
<glyph unicode="a" horiz-adv-x="1276" d="M74 346q0 181 126 271t365 98l189 6v16q0 140 -138 140q-125 0 -315 -84l-113 258q198 102 500 102q218 0 337 -108q120 -108 120 -302v-743h-271l-75 150h-8q-81 -99 -161 -134q-83 -36 -212 -36q-161 0 -252 96q-92 97 -92 270zM473 360q0 -104 111 -104q71 0 121 45 q51 45 51 117v88l-90 -4q-193 -9 -193 -142z" />
<glyph unicode="b" horiz-adv-x="1317" d="M135 0v1556h391v-352q0 -32 -3.5 -85.5t-10.5 -131.5h14q57 88 131 127t170 39q185 0 293 -155q109 -154 109 -429t-110 -433q-110 -156 -304 -156q-61 0 -112 14q-50 14 -88 37q-38 24 -89 80h-24l-62 -111h-305zM526 555q0 -69 9 -118.5t28.5 -81t50.5 -46t74 -14.5 q69 0 106 70t37 208q0 273 -147 273q-82 0 -120 -56.5t-38 -179.5v-55z" />
<glyph unicode="c" horiz-adv-x="1104" d="M86 561q0 282 155 437t441 155q196 0 371 -86l-115 -289q-71 31 -131 49.5t-125 18.5q-96 0 -147.5 -73.5t-51.5 -209.5q0 -272 201 -272q173 0 330 100v-311q-151 -100 -363 -100q-139 0 -244.5 38t-177 112t-107.5 182t-36 249z" />
<glyph unicode="d" horiz-adv-x="1317" d="M86 565q2 278 111 432q111 156 305 156q95 0 166.5 -38t130.5 -128h8q-10 67 -14.5 133t-4.5 133v303h394v-1556h-295l-84 143h-15q-51 -82 -126 -121.5t-175 -41.5h-8q-85 0 -157 39q-74 41 -126.5 117t-81 185t-28.5 244zM481 559q0 -133 42.5 -201.5t123.5 -68.5 q94 0 134 58.5t40 182.5v31q0 75 -10.5 127.5t-32.5 86t-55.5 48.5t-79.5 15q-78 0 -120 -72t-42 -207z" />
<glyph unicode="e" horiz-adv-x="1266" d="M86 559q0 288 145 440q145 154 414 154q255 0 395 -134t140 -384v-174h-699q4 -96 69 -149.5t179 -53.5q106 0 189 19q44 10 90.5 27t97.5 40v-281q-92 -47 -190 -65t-234 -18q-284 0 -440 150t-156 429zM489 707h336q-2 82 -46.5 131t-119.5 49q-69 0 -115.5 -43.5 t-54.5 -136.5z" />
<glyph unicode="f" horiz-adv-x="846" d="M45 840v192l158 96v19q0 225 91 322q92 98 294 98q78 0 147 -12q70 -12 162 -42l-84 -253q-74 20 -141 20q-45 0 -65.5 -27t-20.5 -90v-30h241v-293h-241v-840h-391v840h-150z" />
<glyph unicode="g" horiz-adv-x="1241" d="M20 -180q0 204 252 262q-53 23 -91 71q-38 50 -38 97q0 52 29 93t121 97q-88 39 -138.5 121.5t-50.5 202.5q0 185 126 287t360 102q16 0 42.5 -1.5t64.5 -5.5t66 -7t46 -6h395v-189l-155 -57q32 -59 32 -135q0 -183 -128.5 -284t-383.5 -101q-32 0 -56.5 2t-43.5 6 q-14 -26 -14 -49q0 -29 47 -44.5t123 -15.5h188q381 0 381 -321q0 -207 -177 -322q-175 -115 -495 -115q-120 0 -213.5 20.5t-157.5 60t-97.5 98t-33.5 133.5zM350 -141q0 -48 52 -77.5t139 -29.5q141 0 227 36q86 35 86 91q0 45 -52 63.5t-149 18.5h-153q-63 0 -107 -29 q-43 -30 -43 -73zM473 762q0 -174 121 -174q57 0 87 42.5t30 129.5q0 176 -117 176q-121 0 -121 -174z" />
<glyph unicode="h" horiz-adv-x="1372" d="M135 0v1556h391v-221q0 -75 -4 -160t-12 -182h18q57 88 133 124t179 36q190 0 295 -110q106 -109 106 -306v-737h-393v618q0 228 -135 228q-96 0 -142 -81q-45 -80 -45 -267v-498h-391z" />
<glyph unicode="i" horiz-adv-x="666" d="M127 1415q0 88 49 131t158 43t159 -43.5t50 -130.5q0 -172 -209 -172q-207 0 -207 172zM137 0v1133h391v-1133h-391z" />
<glyph unicode="j" horiz-adv-x="664" d="M-104 -162q64 -18 120 -18q119 0 119 170v1143h391v-1225q0 -186 -110 -293t-310 -107q-24 0 -51.5 2t-58.5 6q-32 4 -56.5 8t-43.5 9v305zM125 1415q0 88 49 131t158 43t159 -43.5t50 -130.5q0 -172 -209 -172q-207 0 -207 172z" />
<glyph unicode="k" horiz-adv-x="1350" d="M135 0v1556h393v-612q0 -79 -5.5 -155.5t-16.5 -151.5h8q35 57 65.5 100.5t55.5 75.5l254 320h436l-393 -482l418 -651h-447l-248 406l-127 -97v-309h-393z" />
<glyph unicode="l" horiz-adv-x="662" d="M135 0v1556h391v-1556h-391z" />
<glyph unicode="m" horiz-adv-x="2048" d="M135 0v1133h295l49 -140h23q45 78 130.5 119t194.5 41q245 0 344 -149h31q48 70 133.5 109.5t188.5 39.5q202 0 297.5 -102.5t95.5 -313.5v-737h-391v616q0 115 -31 172.5t-100 57.5q-91 0 -132.5 -76.5t-41.5 -241.5v-528h-392v616q0 115 -30 172.5t-97 57.5 q-46 0 -79.5 -20t-55 -62t-31.5 -108.5t-10 -159.5v-496h-391z" />
<glyph unicode="n" horiz-adv-x="1372" d="M135 0v1133h295l49 -140h23q51 81 139 120.5t203 39.5q189 0 292 -109q105 -110 105 -307v-737h-391v618q0 114 -32.5 171t-104.5 57q-100 0 -143 -79q-44 -80 -44 -271v-496h-391z" />
<glyph unicode="o" horiz-adv-x="1305" d="M86 569q0 276 149 430q75 78 179.5 115.5t240.5 38.5h6q122 -1 223 -41q104 -42 178 -118q76 -76 116 -184q40 -105 39 -235v-6q-2 -140 -38.5 -248t-111.5 -186q-149 -155 -418 -155q-258 0 -411 159q-152 160 -152 430zM483 569q0 -146 39 -222.5t131 -76.5 q91 0 128.5 76t37.5 223q0 145 -38 219t-130 74q-90 0 -129 -73.5t-39 -219.5z" />
<glyph unicode="p" horiz-adv-x="1317" d="M135 -492v1625h318l55 -144h18q110 164 301 164q188 0 295 -156q107 -157 107 -428q0 -275 -112 -432q-111 -157 -302 -157q-43 0 -81 6.5t-73 22t-68.5 40.5t-66.5 62h-18q18 -119 18 -148v-455h-391zM526 571q0 -146 39 -211t123 -65q75 0 109 64.5t34 213.5 q0 73 -8 125t-26 85t-46 48t-67 15q-86 0 -122 -61.5t-36 -182.5v-31z" />
<glyph unicode="q" horiz-adv-x="1317" d="M86 565q0 275 110 432q111 156 302 156q206 0 309 -160h8l29 140h338v-1625h-391v469q0 34 12 166h-12q-96 -163 -299 -163q-190 0 -298 156t-108 429zM483 559q0 -74 10 -126.5t31 -85.5t52.5 -48.5t74.5 -15.5q45 0 77 13t52.5 42t30.5 74.5t10 111.5v47q0 75 -10 128 t-31 86.5t-54.5 49t-80.5 15.5q-162 0 -162 -291z" />
<glyph unicode="r" horiz-adv-x="961" d="M135 0v1133h291l61 -181h19q49 90 136 145q89 56 177 56q26 0 50 -1.5t47 -6.5l22 -4l-35 -369q-48 12 -133 12q-128 0 -186 -58.5t-58 -168.5v-557h-391z" />
<glyph unicode="s" horiz-adv-x="1092" d="M119 819q0 157 122 246q121 88 345 88q112 0 210.5 -24.5t204.5 -71.5l-106 -252q-39 17 -80 32t-85 27q-85 25 -142 25q-96 0 -96 -47q0 -31 33 -50q17 -11 65 -31t129 -52q60 -24 104 -48.5t73 -47.5q59 -47 86.5 -110.5t27.5 -154.5q0 -183 -123.5 -275.5 t-356.5 -92.5q-63 0 -117.5 3.5t-101.5 10.5q-94 14 -190 49v313q92 -41 199 -66q55 -13 103 -19.5t91 -6.5q127 0 127 58q0 29 -36 53q-36 23 -206 92q-156 63 -218 145q-62 83 -62 207z" />
<glyph unicode="t" horiz-adv-x="942" d="M53 840v159l174 123l101 238h256v-227h278v-293h-278v-441q0 -110 106 -110q79 0 189 39v-285q-40 -17 -77.5 -28.5t-73.5 -19.5q-35 -7 -77 -11t-90 -4q-99 0 -169 24t-115 72.5t-66 122.5t-21 174v467h-137z" />
<glyph unicode="u" horiz-adv-x="1372" d="M133 395v738h391v-619q0 -112 31.5 -168.5t103.5 -56.5q101 0 144 79t43 269v496h391v-1133h-295l-49 141h-23q-49 -78 -136.5 -119.5t-205.5 -41.5q-188 0 -291 108q-104 110 -104 307z" />
<glyph unicode="v" horiz-adv-x="1251" d="M0 1133h408l192 -670q1 -5 4 -17t6 -28.5t5.5 -35t2.5 -34.5h7q0 51 18 113l201 672h407l-432 -1133h-387z" />
<glyph unicode="w" horiz-adv-x="1864" d="M25 1133h385l92 -435q23 -112 35 -204.5t16 -167.5h6q2 46 14 133.5t41 216.5l105 457h432l96 -463q23 -111 37.5 -196.5t20.5 -147.5h6q3 38 8 85t12 104t15 102.5t16 80.5l100 435h377l-311 -1133h-418l-128 540l-30 163l-20 131h-6q-25 -141 -41 -228.5t-25 -124.5 l-115 -481h-411z" />
<glyph unicode="x" horiz-adv-x="1290" d="M10 0l365 578l-346 555h444l172 -318l176 318h445l-355 -555l369 -578h-444l-191 344l-190 -344h-445z" />
<glyph unicode="y" horiz-adv-x="1249" d="M-2 1133h412l192 -650q14 -49 19 -123h8q7 68 24 121l197 652h399l-448 -1205q-86 -230 -212 -325q-125 -95 -327 -95q-39 0 -78.5 4.5t-81.5 12.5v307q52 -12 121 -12q51 0 91 20t68 57q29 37 62 119z" />
<glyph unicode="z" horiz-adv-x="1038" d="M49 0v223l469 611h-442v299h889v-242l-449 -592h471v-299h-938z" />
<glyph unicode="{" horiz-adv-x="887" d="M61 418v301q115 0 180.5 44.5t65.5 125.5v254q0 140 49 208q24 34 63.5 59t96 41.5t132 24t173.5 7.5v-279q-88 -3 -121 -14q-31 -10 -50 -32t-19 -60v-271q0 -113 -56.5 -173.5t-183.5 -78.5v-12q128 -20 184 -79t56 -167v-276q0 -39 21 -61q19 -21 56 -32 q36 -11 113 -14v-278q-196 0 -307 32q-110 31 -159 102q-48 69 -48 210v248q0 40 -17.5 71.5t-49.5 53.5t-77.5 33.5t-101.5 11.5z" />
<glyph unicode="|" horiz-adv-x="1042" d="M387 -446v2002h268v-2002h-268z" />
<glyph unicode="}" horiz-adv-x="887" d="M66 -66q54 2 90.5 9t58.5 20.5t31.5 32.5t9.5 45v276q0 108 56 167t184 79v12q-127 18 -183.5 78.5t-56.5 173.5v271q0 38 -20 60q-19 22 -50 32q-32 11 -120 14v279q195 0 306 -32q110 -32 159 -100t49 -208v-254q0 -81 65 -125.5t180 -44.5v-301q-56 0 -101 -11.5 t-77 -33.5t-49.5 -53.5t-17.5 -71.5v-248q0 -140 -49 -210q-24 -35 -63 -60t-96 -41.5t-132.5 -24.5t-173.5 -8v278z" />
<glyph unicode="~" horiz-adv-x="1159" d="M72 526v281q103 108 264 108q35 0 67 -3.5t63 -10.5t68 -18.5t82 -30.5q133 -55 238 -55q51 0 112.5 32t118.5 89v-281q-105 -109 -264 -109q-71 0 -134 15q-31 8 -67.5 20t-78.5 29q-129 55 -236 55q-111 0 -233 -121z" />
<glyph unicode="&#xa1;" horiz-adv-x="594" d="M82 -334l51 946h330l51 -946h-432zM92 963q0 91 53.5 140.5t153.5 49.5q102 0 156.5 -50t54.5 -140q0 -91 -53 -142t-158 -51q-103 0 -155 50t-52 143z" />
<glyph unicode="&#xa2;" d="M129 739q0 241 112.5 388.5t323.5 189.5v166h207v-154q171 -9 324 -84l-115 -289q-71 31 -131 49.5t-125 18.5q-96 0 -147.5 -73.5t-51.5 -209.5q0 -272 201 -272q173 0 330 100v-311q-126 -81 -285 -98v-180h-207v186q-212 31 -324 176t-112 397z" />
<glyph unicode="&#xa3;" d="M102 649v277h166v118q0 217 116 329t339 112q211 0 405 -82l-110 -289q-147 55 -252 55q-58 0 -85.5 -32.5t-27.5 -104.5v-106h344v-277h-344v-96q0 -151 -159 -227h671v-326h-1061v313q41 23 68 42.5t41 33.5q29 30 42 67.5t13 94.5v98h-166z" />
<glyph unicode="&#xa4;" horiz-adv-x="1159" d="M96 1018l180 182l123 -123q85 41 172 41q91 0 177 -45l120 127l185 -174l-127 -125q41 -77 41 -178q0 -92 -41 -176l121 -119l-179 -178l-120 119q-89 -39 -177 -39q-101 0 -176 37l-119 -115l-178 178l123 119q-41 84 -41 174q0 88 41 176zM436 723q0 -56 40 -96 q40 -39 95 -39q57 0 100 38q42 39 42 97t-42 97q-41 40 -100 40q-55 0 -96 -41q-39 -41 -39 -96z" />
<glyph unicode="&#xa5;" d="M8 1462h400l192 -504l193 504h399l-363 -712h195v-211h-242v-117h242v-209h-242v-213h-364v213h-246v209h246v117h-246v211h190z" />
<glyph unicode="&#xa6;" horiz-adv-x="1042" d="M387 393h268v-839h-268v839zM387 717v839h268v-839h-268z" />
<glyph unicode="&#xa7;" horiz-adv-x="1024" d="M106 803q0 64 43 124.5t121 108.5q-141 102 -141 246q0 136 111 216q110 79 295 79q190 0 370 -86l-98 -221q-73 40 -146.5 63t-128.5 23q-108 0 -108 -74q0 -43 45 -79t129 -70q175 -71 252.5 -152t77.5 -178q0 -39 -7.5 -72.5t-24.5 -65t-45.5 -61t-70.5 -59.5 q125 -95 125 -244t-117 -238q-115 -88 -319 -88q-203 0 -352 86v244q40 -22 85 -41t97 -35q105 -32 172 -32q139 0 139 96q0 42 -31 72q-31 31 -139 79q-71 32 -122.5 59.5t-83.5 52.5q-64 49 -96 107.5t-32 139.5zM397 834q0 -50 44 -91q22 -20 60.5 -44.5t94.5 -53.5 q41 47 41 107q0 57 -42 100t-140 84q-58 -31 -58 -102z" />
<glyph unicode="&#xa8;" horiz-adv-x="1233" d="M223 1413q0 75 46 116.5t124 41.5q79 0 125.5 -42.5t46.5 -115.5q0 -72 -46.5 -114t-125.5 -42q-78 0 -124 40.5t-46 115.5zM702 1413q0 75 45.5 116.5t126.5 41.5t127 -43t46 -115t-46 -114t-127 -42t-126.5 41.5t-45.5 114.5z" />
<glyph unicode="&#xa9;" horiz-adv-x="1688" d="M92 731q0 200 100 375q101 176 275 276q176 101 377 101q198 0 370 -97q87 -49 156 -116.5t121 -155.5q104 -176 104 -383q0 -204 -101 -377t-273 -273q-173 -101 -377 -101q-207 0 -382 103t-273 277q-97 172 -97 371zM256 731q0 -159 79 -296q80 -137 216 -215 q137 -77 293 -77q157 0 294 78q136 79 215 215t79 295q0 156 -78 293q-38 69 -91.5 122t-122.5 93q-137 80 -296 80t-295 -79q-135 -77 -215 -215q-78 -137 -78 -294zM434 735q0 216 113 340q112 123 321 123q166 0 322 -78l-92 -205q-107 56 -211 56q-81 0 -126.5 -61 t-45.5 -179q0 -128 43.5 -185t134.5 -57q137 0 258 68v-231q-125 -64 -272 -64q-212 0 -329 124q-116 125 -116 349z" />
<glyph unicode="&#xaa;" horiz-adv-x="813" d="M49 967q0 115 77 171q76 55 267 64l88 4v6q0 42 -25.5 59t-76.5 17q-57 0 -107 -15t-104 -40l-76 166q110 52 180 65q73 15 164 15q69 0 124.5 -19.5t93.5 -56t58.5 -90.5t20.5 -123v-449h-162l-45 127q-24 -38 -49.5 -64.5t-55 -43t-63.5 -24t-75 -7.5q-54 0 -97.5 16.5 t-74 47t-46.5 74.5t-16 100zM301 979q0 -32 18 -50t52 -18q51 0 80.5 38t29.5 98v22l-84 -6q-96 -8 -96 -84z" />
<glyph unicode="&#xab;" horiz-adv-x="1395" d="M74 561v27l389 483l280 -149l-272 -347l272 -348l-280 -147zM649 561v27l387 483l283 -149l-275 -347l275 -348l-283 -147z" />
<glyph unicode="&#xac;" horiz-adv-x="1159" d="M72 588v268h1013v-618h-270v350h-743z" />
<glyph unicode="&#xad;" horiz-adv-x="651" d="M43 393v312h565v-312h-565z" />
<glyph unicode="&#xae;" horiz-adv-x="1688" d="M92 731q0 200 100 375q101 176 275 276q176 101 377 101q198 0 370 -97q87 -49 156 -116.5t121 -155.5q104 -176 104 -383q0 -204 -101 -377t-273 -273q-173 -101 -377 -101q-207 0 -382 103t-273 277q-97 172 -97 371zM256 731q0 -159 79 -296q80 -137 216 -215 q137 -77 293 -77q157 0 294 78q136 79 215 215t79 295q0 156 -78 293q-38 69 -91.5 122t-122.5 93q-137 80 -296 80t-295 -79q-135 -77 -215 -215q-78 -137 -78 -294zM506 313v875h291q407 0 407 -270q0 -88 -33 -147t-108 -95l194 -363h-290l-146 320h-35v-320h-280z M786 809h11q58 0 91.5 21.5t33.5 76.5q0 47 -27.5 66.5t-95.5 19.5h-13v-184z" />
<glyph unicode="&#xaf;" horiz-adv-x="1024" d="M-6 1556v246h1036v-246h-1036z" />
<glyph unicode="&#xb0;" horiz-adv-x="864" d="M63 1114q0 72 30 139t80.5 118t117.5 81.5t141 30.5t141 -30.5t118 -81.5t80.5 -117.5t29.5 -139.5q0 -72 -29.5 -138t-79.5 -116.5t-117 -80t-143 -29.5q-74 0 -141 29.5t-117.5 79.5t-80.5 116t-30 139zM301 1114q0 -51 38 -89t93 -38q54 0 92 39q39 39 39 88 q0 51 -38 92t-93 41q-56 0 -94 -41q-37 -40 -37 -92z" />
<glyph unicode="&#xb1;" horiz-adv-x="1159" d="M72 0v268h1013v-268h-1013zM72 684v268h372v367h269v-367h372v-268h-372v-360h-269v360h-372z" />
<glyph unicode="&#xb2;" horiz-adv-x="817" d="M61 1350q40 36 81 62t86 42t95.5 23.5t108.5 7.5q143 0 220 -63t77 -175q0 -46 -13 -86.5t-41 -85.5q-14 -22 -32.5 -44.5t-41.5 -46.5q-23 -23 -72.5 -66.5t-125.5 -106.5h347v-225h-674v207l215 213q86 86 116 129q33 45 33 79q0 58 -65 58q-81 0 -172 -88z" />
<glyph unicode="&#xb3;" horiz-adv-x="817" d="M63 1366q148 115 343 115q145 0 232 -58q87 -59 87 -157q0 -78 -37 -132.5t-125 -86.5v-9q97 -24 144 -75.5t47 -139.5q0 -121 -97.5 -187.5t-277.5 -66.5q-185 0 -309 70v233q117 -81 297 -81q116 0 116 67q0 42 -32.5 57t-102.5 15h-104v194h80q72 0 105.5 18t33.5 60 q0 25 -21 46.5t-71 21.5t-94 -17t-97 -57z" />
<glyph unicode="&#xb4;" horiz-adv-x="1225" d="M264 1241v29q154 165 195 213q21 24 38 45.5t31 40.5h428v-21q-40 -32 -95 -72.5t-125 -90.5t-123 -85.5t-89 -58.5h-260z" />
<glyph unicode="&#xb5;" horiz-adv-x="1376" d="M135 -492v1625h391v-615q0 -115 33.5 -172t112.5 -57q93 0 134.5 83t41.5 265v496h393v-1133h-293l-53 152h-16q-34 -88 -90.5 -130t-122.5 -42q-56 0 -90 20t-62 63q12 -90 12 -235v-320h-391z" />
<glyph unicode="&#xb6;" horiz-adv-x="1317" d="M102 1042q0 256 107.5 385t343.5 129h633v-1816h-191v1587h-157v-1587h-191v819q-54 -18 -125 -18q-216 0 -318 125t-102 376z" />
<glyph unicode="&#xb7;" horiz-adv-x="592" d="M86 723q0 93 54 142.5t159 49.5q100 0 152.5 -49.5t52.5 -142.5q0 -91 -54 -142t-151 -51q-100 0 -156.5 51t-56.5 142z" />
<glyph unicode="&#xb8;" horiz-adv-x="383" d="M-90 -258q82 -27 147 -27q52 0 52 47q0 33 -41 58.5t-107 40.5l72 139h203l-9 -29q48 -20 80.5 -42.5t52.5 -50t28.5 -59.5t8.5 -71q0 -110 -75 -174q-75 -66 -199 -66q-135 0 -213 29v205z" />
<glyph unicode="&#xb9;" horiz-adv-x="817" d="M57 1188l340 274h219v-876h-282v356q0 35 3 118q2 42 3.5 66.5t3.5 32.5q-8 -17 -32 -43q-11 -12 -38 -36.5t-71 -61.5z" />
<glyph unicode="&#xba;" horiz-adv-x="803" d="M49 1104q0 178 94 276q94 99 260 99q158 0 255 -103q98 -104 98 -272q0 -175 -96 -275q-94 -100 -261 -100q-161 0 -255 102q-95 102 -95 273zM301 1104q0 -88 24 -130t76 -42q99 0 99 172q0 174 -99 174q-100 0 -100 -174z" />
<glyph unicode="&#xbb;" horiz-adv-x="1395" d="M76 227l272 348l-272 347l282 149l387 -483v-27l-387 -481zM649 227l275 348l-275 347l285 149l387 -483v-27l-387 -481z" />
<glyph unicode="&#xbc;" horiz-adv-x="1919" d="M-11 1188l340 274h219v-876h-282v356q0 35 3 118q2 42 3.5 66.5t3.5 32.5q-8 -17 -32 -43q-11 -12 -38 -36.5t-71 -61.5zM357 0l753 1462h302l-754 -1462h-301zM1028 141v188l350 555h295v-542h125v-201h-125v-139h-275v139h-370zM1241 342h157v166q0 35 1.5 68.5 t5.5 66.5q-20 -51 -35.5 -83.5t-26.5 -49.5z" />
<glyph unicode="&#xbd;" horiz-adv-x="1921" d="M-11 1188l340 274h219v-876h-282v356q0 35 3 118q2 42 3.5 66.5t3.5 32.5q-8 -17 -32 -43q-11 -12 -38 -36.5t-71 -61.5zM381 0l753 1462h302l-754 -1462h-301zM1140 766q40 36 81 62t86 42t95.5 23.5t108.5 7.5q143 0 220 -63t77 -175q0 -46 -13 -86.5t-41 -85.5 q-14 -22 -32.5 -44.5t-41.5 -46.5q-23 -23 -72.5 -66.5t-125.5 -106.5h347v-225h-674v207l215 213q86 86 116 129q33 45 33 79q0 58 -65 58q-81 0 -172 -88z" />
<glyph unicode="&#xbe;" horiz-adv-x="1921" d="M83 1366q148 115 343 115q145 0 232 -58q87 -59 87 -157q0 -78 -37 -132.5t-125 -86.5v-9q97 -24 144 -75.5t47 -139.5q0 -121 -97.5 -187.5t-277.5 -66.5q-185 0 -309 70v233q117 -81 297 -81q116 0 116 67q0 42 -32.5 57t-102.5 15h-104v194h80q72 0 105.5 18t33.5 60 q0 25 -21 46.5t-71 21.5t-94 -17t-97 -57zM465 0l753 1462h302l-754 -1462h-301zM1100 141v188l350 555h295v-542h125v-201h-125v-139h-275v139h-370zM1313 342h157v166q0 35 1.5 68.5t5.5 66.5q-20 -51 -35.5 -83.5t-26.5 -49.5z" />
<glyph unicode="&#xbf;" horiz-adv-x="1034" d="M37 10q0 120 55 208q56 89 182 169q101 65 129 97q29 34 29 77v51h307v-86q0 -99 -40 -166q-20 -34 -55.5 -66t-86.5 -65q-44 -29 -72.5 -51t-46 -42.5t-25 -42.5t-7.5 -50q0 -42 37 -66t100 -24q149 0 352 106l139 -272q-243 -141 -520 -141q-222 0 -350 98 q-127 97 -127 266zM365 963q0 91 53.5 140.5t152.5 49.5q102 0 156.5 -49.5t54.5 -140.5q0 -94 -52.5 -143.5t-158.5 -49.5q-102 0 -154 49.5t-52 143.5z" />
<glyph unicode="&#xc0;" horiz-adv-x="1487" d="M0 0l477 1468h527l483 -1468h-432l-72 274h-475l-74 -274h-434zM272 1886v21h430q26 -35 77 -92t126 -141l59 -66v-29h-260q-69 43 -204 138q-67 48 -123.5 90t-104.5 79zM590 598h311l-63 240q-11 40 -24.5 91.5t-29.5 115.5t-26 109t-15 73q-9 -51 -36 -168 q-13 -59 -42 -173.5t-75 -287.5z" />
<glyph unicode="&#xc1;" horiz-adv-x="1487" d="M0 0l477 1468h527l483 -1468h-432l-72 274h-475l-74 -274h-434zM532 1579v29q154 165 195 213q21 24 38 45.5t31 40.5h428v-21q-40 -32 -95 -72.5t-125 -90.5t-123 -85.5t-89 -58.5h-260zM590 598h311l-63 240q-11 40 -24.5 91.5t-29.5 115.5t-26 109t-15 73 q-9 -51 -36 -168q-13 -59 -42 -173.5t-75 -287.5z" />
<glyph unicode="&#xc2;" horiz-adv-x="1487" d="M0 0l477 1468h527l483 -1468h-432l-72 274h-475l-74 -274h-434zM295 1579v29q69 64 144 153q38 45 66.5 81t47.5 65h393q48 -69 111.5 -143.5t144.5 -155.5v-29h-254q-84 48 -201 150q-123 -105 -194 -150h-258zM590 598h311l-63 240q-11 40 -24.5 91.5t-29.5 115.5 t-26 109t-15 73q-9 -51 -36 -168q-13 -59 -42 -173.5t-75 -287.5z" />
<glyph unicode="&#xc3;" horiz-adv-x="1487" d="M0 0l477 1468h527l483 -1468h-432l-72 274h-475l-74 -274h-434zM330 1575q11 175 72 258.5t180 83.5q38 0 81 -15t87 -33t87 -33t81 -15q29 0 46 25t26 73h182q-11 -168 -74 -255t-172 -87q-45 0 -90.5 15t-89.5 33t-85.5 33t-78.5 15q-54 0 -72 -98h-180zM590 598h311 l-63 240q-11 40 -24.5 91.5t-29.5 115.5t-26 109t-15 73q-9 -51 -36 -168q-13 -59 -42 -173.5t-75 -287.5z" />
<glyph unicode="&#xc4;" horiz-adv-x="1487" d="M0 0l477 1468h527l483 -1468h-432l-72 274h-475l-74 -274h-434zM352 1751q0 75 46 116.5t124 41.5q79 0 125.5 -42.5t46.5 -115.5q0 -72 -46.5 -114t-125.5 -42q-78 0 -124 40.5t-46 115.5zM590 598h311l-63 240q-11 40 -24.5 91.5t-29.5 115.5t-26 109t-15 73 q-9 -51 -36 -168q-13 -59 -42 -173.5t-75 -287.5zM831 1751q0 75 45.5 116.5t126.5 41.5t127 -43t46 -115t-46 -114t-127 -42t-126.5 41.5t-45.5 114.5z" />
<glyph unicode="&#xc5;" horiz-adv-x="1487" d="M0 0l477 1468h527l483 -1468h-432l-72 274h-475l-74 -274h-434zM475 1614q0 116 71 185q72 69 193 69q119 0 195 -70q77 -71 77 -182q0 -114 -76 -184t-196 -70q-122 0 -193 68t-71 184zM590 598h311l-63 240q-11 40 -24.5 91.5t-29.5 115.5t-26 109t-15 73 q-9 -51 -36 -168q-13 -59 -42 -173.5t-75 -287.5zM655 1614q0 -37 21 -60.5t63 -23.5q35 0 59.5 23.5t24.5 60.5q0 38 -24.5 61t-59.5 23t-59.5 -23t-24.5 -61z" />
<glyph unicode="&#xc6;" horiz-adv-x="1937" d="M-10 0l628 1462h1221v-317h-473v-230h438v-317h-438v-276h473v-322h-870v274h-437l-100 -274h-442zM653 602h316v526h-111z" />
<glyph unicode="&#xc7;" horiz-adv-x="1329" d="M104 727q-1 170 48.5 310t142 239.5t224 153.5t294.5 53q119 -2 231.5 -26.5t221.5 -76.5l-121 -311q-81 38 -162 64t-174 26q-140 0 -220 -116q-79 -115 -79 -318q0 -422 321 -422q97 0 188 27t183 65v-334q-183 -81 -414 -81q-331 0 -508 192q-174 191 -176 555z M477 -258q82 -27 147 -27q52 0 52 47q0 33 -41 58.5t-107 40.5l72 139h203l-9 -29q48 -20 80.5 -42.5t52.5 -50t28.5 -59.5t8.5 -71q0 -110 -75 -174q-75 -66 -199 -66q-135 0 -213 29v205z" />
<glyph unicode="&#xc8;" horiz-adv-x="1124" d="M155 1886v21h430q26 -35 77 -92t126 -141l59 -66v-29h-260q-69 43 -204 138q-67 48 -123.5 90t-104.5 79zM158 0v1462h868v-317h-473v-230h438v-317h-438v-276h473v-322h-868z" />
<glyph unicode="&#xc9;" horiz-adv-x="1124" d="M158 0v1462h868v-317h-473v-230h438v-317h-438v-276h473v-322h-868zM362 1579v29q154 165 195 213q21 24 38 45.5t31 40.5h428v-21q-40 -32 -95 -72.5t-125 -90.5t-123 -85.5t-89 -58.5h-260z" />
<glyph unicode="&#xca;" horiz-adv-x="1124" d="M152 1579v29q69 64 144 153q38 45 66.5 81t47.5 65h393q48 -69 111.5 -143.5t144.5 -155.5v-29h-254q-84 48 -201 150q-123 -105 -194 -150h-258zM158 0v1462h868v-317h-473v-230h438v-317h-438v-276h473v-322h-868z" />
<glyph unicode="&#xcb;" horiz-adv-x="1124" d="M158 0v1462h868v-317h-473v-230h438v-317h-438v-276h473v-322h-868zM188 1751q0 75 46 116.5t124 41.5q79 0 125.5 -42.5t46.5 -115.5q0 -72 -46.5 -114t-125.5 -42q-78 0 -124 40.5t-46 115.5zM667 1751q0 75 45.5 116.5t126.5 41.5t127 -43t46 -115t-46 -114t-127 -42 t-126.5 41.5t-45.5 114.5z" />
<glyph unicode="&#xcc;" horiz-adv-x="713" d="M-115 1886v21h430q26 -35 77 -92t126 -141l59 -66v-29h-260q-69 43 -204 138q-67 48 -123.5 90t-104.5 79zM158 0v1462h397v-1462h-397z" />
<glyph unicode="&#xcd;" horiz-adv-x="713" d="M157 1579v29q154 165 195 213q21 24 38 45.5t31 40.5h428v-21q-40 -32 -95 -72.5t-125 -90.5t-123 -85.5t-89 -58.5h-260zM158 0v1462h397v-1462h-397z" />
<glyph unicode="&#xce;" horiz-adv-x="713" d="M-94 1579v29q69 64 144 153q38 45 66.5 81t47.5 65h393q48 -69 111.5 -143.5t144.5 -155.5v-29h-254q-84 48 -201 150q-123 -105 -194 -150h-258zM158 0v1462h397v-1462h-397z" />
<glyph unicode="&#xcf;" horiz-adv-x="713" d="M-54 1751q0 75 46 116.5t124 41.5q79 0 125.5 -42.5t46.5 -115.5q0 -72 -46.5 -114t-125.5 -42q-78 0 -124 40.5t-46 115.5zM158 0v1462h397v-1462h-397zM425 1751q0 75 45.5 116.5t126.5 41.5t127 -43t46 -115t-46 -114t-127 -42t-126.5 41.5t-45.5 114.5z" />
<glyph unicode="&#xd0;" horiz-adv-x="1503" d="M31 563v320h127v579h506q352 0 543 -180q192 -180 192 -520q0 -366 -202 -564q-201 -198 -566 -198h-473v563h-127zM553 324h88q180 0 264 104.5t84 319.5q0 202 -79 298.5t-242 96.5h-115v-260h211v-320h-211v-239z" />
<glyph unicode="&#xd1;" horiz-adv-x="1708" d="M158 0v1462h516l532 -1016h6q-7 111 -10.5 199.5t-3.5 155.5v661h352v-1462h-518l-534 1030h-9q10 -122 14.5 -214.5t4.5 -156.5v-659h-350zM434 1575q11 175 72 258.5t180 83.5q38 0 81 -15t87 -33t87 -33t81 -15q29 0 46 25t26 73h182q-11 -168 -74 -255t-172 -87 q-45 0 -90.5 15t-89.5 33t-85.5 33t-78.5 15q-54 0 -72 -98h-180z" />
<glyph unicode="&#xd2;" horiz-adv-x="1632" d="M104 735q0 364 182 557q183 193 531 193q349 0 529 -191t180 -561q0 -369 -181 -561t-530 -192q-344 0 -528 193q-183 193 -183 562zM397 1886v21h430q26 -35 77 -92t126 -141l59 -66v-29h-260q-69 43 -204 138q-67 48 -123.5 90t-104.5 79zM520 733q0 -424 295 -424 q150 0 222.5 103t72.5 321q0 220 -73 324t-220 104q-297 0 -297 -428z" />
<glyph unicode="&#xd3;" horiz-adv-x="1632" d="M104 735q0 364 182 557q183 193 531 193q349 0 529 -191t180 -561q0 -369 -181 -561t-530 -192q-344 0 -528 193q-183 193 -183 562zM520 733q0 -424 295 -424q150 0 222.5 103t72.5 321q0 220 -73 324t-220 104q-297 0 -297 -428zM583 1579v29q154 165 195 213 q21 24 38 45.5t31 40.5h428v-21q-40 -32 -95 -72.5t-125 -90.5t-123 -85.5t-89 -58.5h-260z" />
<glyph unicode="&#xd4;" horiz-adv-x="1632" d="M104 735q0 364 182 557q183 193 531 193q349 0 529 -191t180 -561q0 -369 -181 -561t-530 -192q-344 0 -528 193q-183 193 -183 562zM363 1579v29q69 64 144 153q38 45 66.5 81t47.5 65h393q48 -69 111.5 -143.5t144.5 -155.5v-29h-254q-84 48 -201 150 q-123 -105 -194 -150h-258zM520 733q0 -424 295 -424q150 0 222.5 103t72.5 321q0 220 -73 324t-220 104q-297 0 -297 -428z" />
<glyph unicode="&#xd5;" horiz-adv-x="1632" d="M104 735q0 364 182 557q183 193 531 193q349 0 529 -191t180 -561q0 -369 -181 -561t-530 -192q-344 0 -528 193q-183 193 -183 562zM401 1575q11 175 72 258.5t180 83.5q38 0 81 -15t87 -33t87 -33t81 -15q29 0 46 25t26 73h182q-11 -168 -74 -255t-172 -87 q-45 0 -90.5 15t-89.5 33t-85.5 33t-78.5 15q-54 0 -72 -98h-180zM520 733q0 -424 295 -424q150 0 222.5 103t72.5 321q0 220 -73 324t-220 104q-297 0 -297 -428z" />
<glyph unicode="&#xd6;" horiz-adv-x="1632" d="M104 735q0 364 182 557q183 193 531 193q349 0 529 -191t180 -561q0 -369 -181 -561t-530 -192q-344 0 -528 193q-183 193 -183 562zM403 1751q0 75 46 116.5t124 41.5q79 0 125.5 -42.5t46.5 -115.5q0 -72 -46.5 -114t-125.5 -42q-78 0 -124 40.5t-46 115.5zM520 733 q0 -424 295 -424q150 0 222.5 103t72.5 321q0 220 -73 324t-220 104q-297 0 -297 -428zM882 1751q0 75 45.5 116.5t126.5 41.5t127 -43t46 -115t-46 -114t-127 -42t-126.5 41.5t-45.5 114.5z" />
<glyph unicode="&#xd7;" horiz-adv-x="1159" d="M121 991l182 189l270 -267l275 267l188 -183l-274 -274l270 -272l-184 -185l-275 271l-270 -269l-180 187l264 268z" />
<glyph unicode="&#xd8;" horiz-adv-x="1632" d="M104 735q0 364 182 557q183 193 531 193q192 0 330 -55l76 118l190 -114l-82 -125q195 -189 195 -576q0 -369 -181 -561t-530 -192q-178 0 -307 43l-84 -132l-193 125l84 125q-211 193 -211 594zM520 733q0 -154 29 -239l403 639q-66 28 -135 28q-297 0 -297 -428z M698 324q54 -15 117 -15q150 0 222.5 103t72.5 321q0 125 -18 211z" />
<glyph unicode="&#xd9;" horiz-adv-x="1550" d="M150 573v889h397v-858q0 -155 58 -225t171 -70q60 0 103.5 16.5t71.5 52.5t41.5 92.5t13.5 135.5v856h395v-880q0 -288 -163 -445q-161 -157 -468 -157q-300 0 -460 153t-160 440zM280 1886v21h430q26 -35 77 -92t126 -141l59 -66v-29h-260q-69 43 -204 138 q-67 48 -123.5 90t-104.5 79z" />
<glyph unicode="&#xda;" horiz-adv-x="1550" d="M150 573v889h397v-858q0 -155 58 -225t171 -70q60 0 103.5 16.5t71.5 52.5t41.5 92.5t13.5 135.5v856h395v-880q0 -288 -163 -445q-161 -157 -468 -157q-300 0 -460 153t-160 440zM561 1579v29q154 165 195 213q21 24 38 45.5t31 40.5h428v-21q-40 -32 -95 -72.5 t-125 -90.5t-123 -85.5t-89 -58.5h-260z" />
<glyph unicode="&#xdb;" horiz-adv-x="1550" d="M150 573v889h397v-858q0 -155 58 -225t171 -70q60 0 103.5 16.5t71.5 52.5t41.5 92.5t13.5 135.5v856h395v-880q0 -288 -163 -445q-161 -157 -468 -157q-300 0 -460 153t-160 440zM322 1579v29q69 64 144 153q38 45 66.5 81t47.5 65h393q48 -69 111.5 -143.5 t144.5 -155.5v-29h-254q-84 48 -201 150q-123 -105 -194 -150h-258z" />
<glyph unicode="&#xdc;" horiz-adv-x="1550" d="M150 573v889h397v-858q0 -155 58 -225t171 -70q60 0 103.5 16.5t71.5 52.5t41.5 92.5t13.5 135.5v856h395v-880q0 -288 -163 -445q-161 -157 -468 -157q-300 0 -460 153t-160 440zM362 1751q0 75 46 116.5t124 41.5q79 0 125.5 -42.5t46.5 -115.5q0 -72 -46.5 -114 t-125.5 -42q-78 0 -124 40.5t-46 115.5zM841 1751q0 75 45.5 116.5t126.5 41.5t127 -43t46 -115t-46 -114t-127 -42t-126.5 41.5t-45.5 114.5z" />
<glyph unicode="&#xdd;" horiz-adv-x="1360" d="M0 1462h430l250 -542l252 542h428l-481 -891v-571h-398v559zM471 1579v29q154 165 195 213q21 24 38 45.5t31 40.5h428v-21q-40 -32 -95 -72.5t-125 -90.5t-123 -85.5t-89 -58.5h-260z" />
<glyph unicode="&#xde;" horiz-adv-x="1284" d="M158 0v1462h395v-213h111q277 0 416 -121t139 -344q0 -246 -145 -379q-143 -133 -410 -133h-111v-272h-395zM553 594h72q90 0 142 50t52 138q0 148 -164 148h-102v-336z" />
<glyph unicode="&#xdf;" horiz-adv-x="1536" d="M135 0v1100q0 215 167 341q166 126 446 126q276 0 433 -100q158 -99 158 -277q0 -57 -20 -103.5t-49.5 -84t-64.5 -66.5t-64.5 -52t-49.5 -41t-20 -32q0 -23 24 -44q25 -20 94 -58q169 -94 228 -173q60 -78 60 -202q0 -175 -114.5 -264.5t-338.5 -89.5q-69 0 -124 3 t-98 10q-85 12 -149 46v291q49 -30 131 -55q81 -25 148 -25q61 0 99 23.5t38 62.5q0 27 -15 47q-13 19 -50 42q-38 25 -121 69q-126 67 -175 124q-49 58 -49 138q0 122 140 218q37 26 63.5 48t43.5 43t24.5 41.5t7.5 42.5q0 51 -49.5 85t-140.5 34q-222 0 -222 -209v-1059 h-391z" />
<glyph unicode="&#xe0;" horiz-adv-x="1276" d="M74 346q0 181 126 271t365 98l189 6v16q0 140 -138 140q-125 0 -315 -84l-113 258q198 102 500 102q218 0 337 -108q120 -108 120 -302v-743h-271l-75 150h-8q-81 -99 -161 -134q-83 -36 -212 -36q-161 0 -252 96q-92 97 -92 270zM205 1548v21h430q26 -35 77 -92 t126 -141l59 -66v-29h-260q-69 43 -204 138q-67 48 -123.5 90t-104.5 79zM473 360q0 -104 111 -104q71 0 121 45q51 45 51 117v88l-90 -4q-193 -9 -193 -142z" />
<glyph unicode="&#xe1;" horiz-adv-x="1276" d="M74 346q0 181 126 271t365 98l189 6v16q0 140 -138 140q-125 0 -315 -84l-113 258q198 102 500 102q218 0 337 -108q120 -108 120 -302v-743h-271l-75 150h-8q-81 -99 -161 -134q-83 -36 -212 -36q-161 0 -252 96q-92 97 -92 270zM434 1241v29q154 165 195 213 q21 24 38 45.5t31 40.5h428v-21q-40 -32 -95 -72.5t-125 -90.5t-123 -85.5t-89 -58.5h-260zM473 360q0 -104 111 -104q71 0 121 45q51 45 51 117v88l-90 -4q-193 -9 -193 -142z" />
<glyph unicode="&#xe2;" horiz-adv-x="1276" d="M74 346q0 181 126 271t365 98l189 6v16q0 140 -138 140q-125 0 -315 -84l-113 258q198 102 500 102q218 0 337 -108q120 -108 120 -302v-743h-271l-75 150h-8q-81 -99 -161 -134q-83 -36 -212 -36q-161 0 -252 96q-92 97 -92 270zM197 1239v29q69 64 144 153 q38 45 66.5 81t47.5 65h393q48 -69 111.5 -143.5t144.5 -155.5v-29h-254q-84 48 -201 150q-123 -105 -194 -150h-258zM473 360q0 -104 111 -104q71 0 121 45q51 45 51 117v88l-90 -4q-193 -9 -193 -142z" />
<glyph unicode="&#xe3;" horiz-adv-x="1276" d="M74 346q0 181 126 271t365 98l189 6v16q0 140 -138 140q-125 0 -315 -84l-113 258q198 102 500 102q218 0 337 -108q120 -108 120 -302v-743h-271l-75 150h-8q-81 -99 -161 -134q-83 -36 -212 -36q-161 0 -252 96q-92 97 -92 270zM244 1237q11 175 72 258.5t180 83.5 q38 0 81 -15t87 -33t87 -33t81 -15q29 0 46 25t26 73h182q-11 -168 -74 -255t-172 -87q-45 0 -90.5 15t-89.5 33t-85.5 33t-78.5 15q-54 0 -72 -98h-180zM473 360q0 -104 111 -104q71 0 121 45q51 45 51 117v88l-90 -4q-193 -9 -193 -142z" />
<glyph unicode="&#xe4;" horiz-adv-x="1276" d="M74 346q0 181 126 271t365 98l189 6v16q0 140 -138 140q-125 0 -315 -84l-113 258q198 102 500 102q218 0 337 -108q120 -108 120 -302v-743h-271l-75 150h-8q-81 -99 -161 -134q-83 -36 -212 -36q-161 0 -252 96q-92 97 -92 270zM268 1413q0 75 46 116.5t124 41.5 q79 0 125.5 -42.5t46.5 -115.5q0 -72 -46.5 -114t-125.5 -42q-78 0 -124 40.5t-46 115.5zM473 360q0 -104 111 -104q71 0 121 45q51 45 51 117v88l-90 -4q-193 -9 -193 -142zM747 1413q0 75 45.5 116.5t126.5 41.5t127 -43t46 -115t-46 -114t-127 -42t-126.5 41.5 t-45.5 114.5z" />
<glyph unicode="&#xe5;" horiz-adv-x="1276" d="M74 346q0 181 126 271t365 98l189 6v16q0 140 -138 140q-125 0 -315 -84l-113 258q198 102 500 102q218 0 337 -108q120 -108 120 -302v-743h-271l-75 150h-8q-81 -99 -161 -134q-83 -36 -212 -36q-161 0 -252 96q-92 97 -92 270zM389 1489q0 116 71 185q72 69 193 69 q119 0 195 -70q77 -71 77 -182q0 -114 -76 -184t-196 -70q-122 0 -193 68t-71 184zM473 360q0 -104 111 -104q71 0 121 45q51 45 51 117v88l-90 -4q-193 -9 -193 -142zM569 1489q0 -37 21 -60.5t63 -23.5q35 0 59.5 23.5t24.5 60.5q0 38 -24.5 61t-59.5 23t-59.5 -23 t-24.5 -61z" />
<glyph unicode="&#xe6;" horiz-adv-x="1915" d="M74 352q0 346 497 363l183 6v18q0 138 -136 138t-313 -80l-110 256q190 100 454 100q202 0 336 -94q35 24 72.5 42t80 29.5t92 17t107.5 5.5q229 0 360 -137q132 -137 132 -383v-172h-696q5 -91 74 -147q71 -56 186 -56q194 0 364 86v-281q-96 -49 -191 -65 q-98 -18 -225 -18q-280 0 -430 190q-80 -83 -142 -121q-31 -19 -65.5 -32t-72.5 -21t-87.5 -12t-109.5 -4q-162 0 -261 101q-99 102 -99 271zM473 356q0 -100 113 -100q69 0 119 45q51 45 51 117v88l-84 -4q-106 -5 -152.5 -39t-46.5 -107zM1139 707h340q-1 41 -14 74 t-34.5 56.5t-51 36.5t-64.5 13q-163 0 -176 -180z" />
<glyph unicode="&#xe7;" horiz-adv-x="1104" d="M86 561q0 282 155 437t441 155q196 0 371 -86l-115 -289q-71 31 -131 49.5t-125 18.5q-96 0 -147.5 -73.5t-51.5 -209.5q0 -272 201 -272q173 0 330 100v-311q-151 -100 -363 -100q-139 0 -244.5 38t-177 112t-107.5 182t-36 249zM361 -258q82 -27 147 -27q52 0 52 47 q0 33 -41 58.5t-107 40.5l72 139h203l-9 -29q48 -20 80.5 -42.5t52.5 -50t28.5 -59.5t8.5 -71q0 -110 -75 -174q-75 -66 -199 -66q-135 0 -213 29v205z" />
<glyph unicode="&#xe8;" horiz-adv-x="1266" d="M86 559q0 288 145 440q145 154 414 154q255 0 395 -134t140 -384v-174h-699q4 -96 69 -149.5t179 -53.5q106 0 189 19q44 10 90.5 27t97.5 40v-281q-92 -47 -190 -65t-234 -18q-284 0 -440 150t-156 429zM190 1548v21h430q26 -35 77 -92t126 -141l59 -66v-29h-260 q-69 43 -204 138q-67 48 -123.5 90t-104.5 79zM489 707h336q-2 82 -46.5 131t-119.5 49q-69 0 -115.5 -43.5t-54.5 -136.5z" />
<glyph unicode="&#xe9;" horiz-adv-x="1266" d="M86 559q0 288 145 440q145 154 414 154q255 0 395 -134t140 -384v-174h-699q4 -96 69 -149.5t179 -53.5q106 0 189 19q44 10 90.5 27t97.5 40v-281q-92 -47 -190 -65t-234 -18q-284 0 -440 150t-156 429zM471 1241v29q154 165 195 213q21 24 38 45.5t31 40.5h428v-21 q-40 -32 -95 -72.5t-125 -90.5t-123 -85.5t-89 -58.5h-260zM489 707h336q-2 82 -46.5 131t-119.5 49q-69 0 -115.5 -43.5t-54.5 -136.5z" />
<glyph unicode="&#xea;" horiz-adv-x="1266" d="M86 559q0 288 145 440q145 154 414 154q255 0 395 -134t140 -384v-174h-699q4 -96 69 -149.5t179 -53.5q106 0 189 19q44 10 90.5 27t97.5 40v-281q-92 -47 -190 -65t-234 -18q-284 0 -440 150t-156 429zM205 1241v29q69 64 144 153q38 45 66.5 81t47.5 65h393 q48 -69 111.5 -143.5t144.5 -155.5v-29h-254q-84 48 -201 150q-123 -105 -194 -150h-258zM489 707h336q-2 82 -46.5 131t-119.5 49q-69 0 -115.5 -43.5t-54.5 -136.5z" />
<glyph unicode="&#xeb;" horiz-adv-x="1266" d="M86 559q0 288 145 440q145 154 414 154q255 0 395 -134t140 -384v-174h-699q4 -96 69 -149.5t179 -53.5q106 0 189 19q44 10 90.5 27t97.5 40v-281q-92 -47 -190 -65t-234 -18q-284 0 -440 150t-156 429zM252 1413q0 75 46 116.5t124 41.5q79 0 125.5 -42.5t46.5 -115.5 q0 -72 -46.5 -114t-125.5 -42q-78 0 -124 40.5t-46 115.5zM489 707h336q-2 82 -46.5 131t-119.5 49q-69 0 -115.5 -43.5t-54.5 -136.5zM731 1413q0 75 45.5 116.5t126.5 41.5t127 -43t46 -115t-46 -114t-127 -42t-126.5 41.5t-45.5 114.5z" />
<glyph unicode="&#xec;" horiz-adv-x="666" d="M-129 1548v21h430q26 -35 77 -92t126 -141l59 -66v-29h-260q-69 43 -204 138q-67 48 -123.5 90t-104.5 79zM137 0v1133h391v-1133h-391z" />
<glyph unicode="&#xed;" horiz-adv-x="666" d="M108 1241v29q154 165 195 213q21 24 38 45.5t31 40.5h428v-21q-40 -32 -95 -72.5t-125 -90.5t-123 -85.5t-89 -58.5h-260zM137 0v1133h391v-1133h-391z" />
<glyph unicode="&#xee;" horiz-adv-x="666" d="M-119 1241v29q69 64 144 153q38 45 66.5 81t47.5 65h393q48 -69 111.5 -143.5t144.5 -155.5v-29h-254q-84 48 -201 150q-123 -105 -194 -150h-258zM137 0v1133h391v-1133h-391z" />
<glyph unicode="&#xef;" horiz-adv-x="666" d="M-60 1413q0 75 46 116.5t124 41.5q79 0 125.5 -42.5t46.5 -115.5q0 -72 -46.5 -114t-125.5 -42q-78 0 -124 40.5t-46 115.5zM137 0v1133h391v-1133h-391zM419 1413q0 75 45.5 116.5t126.5 41.5t127 -43t46 -115t-46 -114t-127 -42t-126.5 41.5t-45.5 114.5z" />
<glyph unicode="&#xf0;" horiz-adv-x="1313" d="M88 498q0 240 130 377q130 139 349 139q191 0 244 -84l8 4q-34 66 -69.5 117.5t-73.5 89.5l-182 -119l-117 184l143 92l-149 93l108 182q175 -74 266 -135l209 137l115 -182l-145 -97q159 -157 226 -328q67 -168 67 -388q0 -275 -153 -438q-152 -162 -415 -162 q-259 0 -410 139t-151 379zM489 500q0 -242 164 -242q91 0 127.5 71t36.5 216q0 42 -11.5 76.5t-33 59.5t-52 38.5t-67.5 13.5q-46 0 -77.5 -14t-50.5 -42.5t-27.5 -72.5t-8.5 -104z" />
<glyph unicode="&#xf1;" horiz-adv-x="1372" d="M135 0v1133h295l49 -140h23q51 81 139 120.5t203 39.5q189 0 292 -109q105 -110 105 -307v-737h-391v618q0 114 -32.5 171t-104.5 57q-100 0 -143 -79q-44 -80 -44 -271v-496h-391zM274 1237q11 175 72 258.5t180 83.5q38 0 81 -15t87 -33t87 -33t81 -15q29 0 46 25 t26 73h182q-11 -168 -74 -255t-172 -87q-45 0 -90.5 15t-89.5 33t-85.5 33t-78.5 15q-54 0 -72 -98h-180z" />
<glyph unicode="&#xf2;" horiz-adv-x="1305" d="M86 569q0 276 149 430q75 78 179.5 115.5t240.5 38.5q125 1 229 -40.5t178.5 -118t115 -184.5t39.5 -241q-2 -140 -38.5 -248t-111.5 -186q-149 -155 -418 -155q-258 0 -411 159q-152 160 -152 430zM176 1548v21h430q26 -35 77 -92t126 -141l59 -66v-29h-260 q-69 43 -204 138q-67 48 -123.5 90t-104.5 79zM483 569q0 -146 39 -222.5t131 -76.5q91 0 128.5 76t37.5 223q0 145 -38 219t-130 74q-90 0 -129 -73.5t-39 -219.5z" />
<glyph unicode="&#xf3;" horiz-adv-x="1305" d="M86 569q0 276 149 430q75 78 179.5 115.5t240.5 38.5q125 1 229 -40.5t178.5 -118t115 -184.5t39.5 -241q-2 -140 -38.5 -248t-111.5 -186q-149 -155 -418 -155q-258 0 -411 159q-152 160 -152 430zM416 1241v29q154 165 195 213q21 24 38 45.5t31 40.5h428v-21 q-40 -32 -95 -72.5t-125 -90.5t-123 -85.5t-89 -58.5h-260zM483 569q0 -146 39 -222.5t131 -76.5q91 0 128.5 76t37.5 223q0 145 -38 219t-130 74q-90 0 -129 -73.5t-39 -219.5z" />
<glyph unicode="&#xf4;" horiz-adv-x="1305" d="M86 569q0 276 149 430q75 78 179.5 115.5t240.5 38.5q125 1 229 -40.5t178.5 -118t115 -184.5t39.5 -241q-2 -140 -38.5 -248t-111.5 -186q-149 -155 -418 -155q-258 0 -411 159q-152 160 -152 430zM199 1241v29q69 64 144 153q38 45 66.5 81t47.5 65h393 q48 -69 111.5 -143.5t144.5 -155.5v-29h-254q-84 48 -201 150q-123 -105 -194 -150h-258zM483 569q0 -146 39 -222.5t131 -76.5q91 0 128.5 76t37.5 223q0 145 -38 219t-130 74q-90 0 -129 -73.5t-39 -219.5z" />
<glyph unicode="&#xf5;" horiz-adv-x="1305" d="M86 569q0 276 149 430q75 78 179.5 115.5t240.5 38.5q125 1 229 -40.5t178.5 -118t115 -184.5t39.5 -241q-2 -140 -38.5 -248t-111.5 -186q-149 -155 -418 -155q-258 0 -411 159q-152 160 -152 430zM231 1237q11 175 72 258.5t180 83.5q38 0 81 -15t87 -33t87 -33t81 -15 q29 0 46 25t26 73h182q-11 -168 -74 -255t-172 -87q-45 0 -90.5 15t-89.5 33t-85.5 33t-78.5 15q-54 0 -72 -98h-180zM483 569q0 -146 39 -222.5t131 -76.5q91 0 128.5 76t37.5 223q0 145 -38 219t-130 74q-90 0 -129 -73.5t-39 -219.5z" />
<glyph unicode="&#xf6;" horiz-adv-x="1305" d="M86 569q0 276 149 430q75 78 179.5 115.5t240.5 38.5q125 1 229 -40.5t178.5 -118t115 -184.5t39.5 -241q-2 -140 -38.5 -248t-111.5 -186q-149 -155 -418 -155q-258 0 -411 159q-152 160 -152 430zM239 1413q0 75 46 116.5t124 41.5q79 0 125.5 -42.5t46.5 -115.5 q0 -72 -46.5 -114t-125.5 -42q-78 0 -124 40.5t-46 115.5zM483 569q0 -146 39 -222.5t131 -76.5q91 0 128.5 76t37.5 223q0 145 -38 219t-130 74q-90 0 -129 -73.5t-39 -219.5zM718 1413q0 75 45.5 116.5t126.5 41.5t127 -43t46 -115t-46 -114t-127 -42t-126.5 41.5 t-45.5 114.5z" />
<glyph unicode="&#xf7;" horiz-adv-x="1159" d="M72 588v268h1013v-268h-1013zM422 332q0 82 39 126t117 44q75 0 116 -43t41 -127q0 -81 -43.5 -125.5t-113.5 -44.5q-72 0 -114 44t-42 126zM422 1112q0 82 39 126t117 44q75 0 116 -43t41 -127q0 -81 -43.5 -125.5t-113.5 -44.5q-72 0 -114 44t-42 126z" />
<glyph unicode="&#xf8;" horiz-adv-x="1362" d="M86 569q0 277 157 430q157 154 441 154q124 0 234 -39l71 111l168 -105l-67 -104q184 -157 184 -447q0 -281 -157 -435q-155 -154 -439 -154q-127 0 -229 34l-84 -131l-170 107l79 123q-188 158 -188 456zM461 569q0 -99 12 -147l289 448q-35 13 -82 13 q-114 0 -166.5 -74t-52.5 -240zM606 258q29 -8 76 -8q114 0 165 73q52 73 52 246q0 88 -10 131z" />
<glyph unicode="&#xf9;" horiz-adv-x="1372" d="M133 395v738h391v-619q0 -112 31.5 -168.5t103.5 -56.5q101 0 144 79t43 269v496h391v-1133h-295l-49 141h-23q-49 -78 -136.5 -119.5t-205.5 -41.5q-188 0 -291 108q-104 110 -104 307zM176 1548v21h430q26 -35 77 -92t126 -141l59 -66v-29h-260q-69 43 -204 138 q-67 48 -123.5 90t-104.5 79z" />
<glyph unicode="&#xfa;" horiz-adv-x="1372" d="M133 395v738h391v-619q0 -112 31.5 -168.5t103.5 -56.5q101 0 144 79t43 269v496h391v-1133h-295l-49 141h-23q-49 -78 -136.5 -119.5t-205.5 -41.5q-188 0 -291 108q-104 110 -104 307zM471 1241v29q154 165 195 213q21 24 38 45.5t31 40.5h428v-21q-40 -32 -95 -72.5 t-125 -90.5t-123 -85.5t-89 -58.5h-260z" />
<glyph unicode="&#xfb;" horiz-adv-x="1372" d="M133 395v738h391v-619q0 -112 31.5 -168.5t103.5 -56.5q101 0 144 79t43 269v496h391v-1133h-295l-49 141h-23q-49 -78 -136.5 -119.5t-205.5 -41.5q-188 0 -291 108q-104 110 -104 307zM230 1241v29q69 64 144 153q38 45 66.5 81t47.5 65h393q48 -69 111.5 -143.5 t144.5 -155.5v-29h-254q-84 48 -201 150q-123 -105 -194 -150h-258z" />
<glyph unicode="&#xfc;" horiz-adv-x="1372" d="M133 395v738h391v-619q0 -112 31.5 -168.5t103.5 -56.5q101 0 144 79t43 269v496h391v-1133h-295l-49 141h-23q-49 -78 -136.5 -119.5t-205.5 -41.5q-188 0 -291 108q-104 110 -104 307zM272 1413q0 75 46 116.5t124 41.5q79 0 125.5 -42.5t46.5 -115.5q0 -72 -46.5 -114 t-125.5 -42q-78 0 -124 40.5t-46 115.5zM751 1413q0 75 45.5 116.5t126.5 41.5t127 -43t46 -115t-46 -114t-127 -42t-126.5 41.5t-45.5 114.5z" />
<glyph unicode="&#xfd;" horiz-adv-x="1249" d="M-2 1133h412l192 -650q14 -49 19 -123h8q7 68 24 121l197 652h399l-448 -1205q-86 -230 -212 -325q-125 -95 -327 -95q-39 0 -78.5 4.5t-81.5 12.5v307q52 -12 121 -12q51 0 91 20t68 57q29 37 62 119zM401 1241v29q154 165 195 213q21 24 38 45.5t31 40.5h428v-21 q-40 -32 -95 -72.5t-125 -90.5t-123 -85.5t-89 -58.5h-260z" />
<glyph unicode="&#xfe;" horiz-adv-x="1317" d="M135 -492v2048h391v-344q0 -107 -18 -225h18q43 78 122 122t179 44q185 0 293 -154q109 -154 109 -430q0 -272 -112 -430q-111 -159 -304 -159q-173 0 -287 129h-14l7 -60l7 -92v-449h-391zM526 571q0 -146 39 -211t123 -65q80 0 111.5 70.5t31.5 207.5q0 134 -33 203.5 t-116 69.5q-85 0 -120.5 -61t-35.5 -185v-29z" />
<glyph unicode="&#xff;" horiz-adv-x="1249" d="M-2 1133h412l192 -650q14 -49 19 -123h8q7 68 24 121l197 652h399l-448 -1205q-86 -230 -212 -325q-125 -95 -327 -95q-39 0 -78.5 4.5t-81.5 12.5v307q52 -12 121 -12q51 0 91 20t68 57q29 37 62 119zM217 1413q0 75 46 116.5t124 41.5q79 0 125.5 -42.5t46.5 -115.5 q0 -72 -46.5 -114t-125.5 -42q-78 0 -124 40.5t-46 115.5zM696 1413q0 75 45.5 116.5t126.5 41.5t127 -43t46 -115t-46 -114t-127 -42t-126.5 41.5t-45.5 114.5z" />
<glyph unicode="&#x152;" horiz-adv-x="1960" d="M104 735q0 360 175 554q175 196 497 196q34 0 69.5 -1.5t73.5 -5.5t65 -7.5t42 -8.5h836v-317h-473v-230h436v-317h-436v-276h473v-322h-844q-17 -4 -45 -7.5t-66 -6.5q-77 -6 -133 -6q-319 0 -495 200q-175 199 -175 555zM520 733q0 -205 64.5 -314.5t191.5 -109.5 q141 0 217 43v760q-34 23 -93 36t-122 13q-126 0 -192 -108.5t-66 -319.5z" />
<glyph unicode="&#x153;" horiz-adv-x="2007" d="M86 569q0 276 149 430q150 154 420 154q227 0 375 -127q154 127 400 127q227 0 359 -136q132 -137 132 -384v-172h-696q5 -91 74 -147q71 -56 186 -56q194 0 364 86v-281q-92 -47 -187 -65t-228 -18q-237 0 -383 137q-152 -137 -402 -137q-258 0 -411 159 q-152 160 -152 430zM485 569q0 -146 38 -222.5t130 -76.5q91 0 128.5 76t37.5 223q0 145 -38 219t-130 74q-89 0 -127.5 -74t-38.5 -219zM1231 707h340q-1 41 -14 74t-34.5 56.5t-51 36.5t-64.5 13q-163 0 -176 -180z" />
<glyph unicode="&#x178;" horiz-adv-x="1360" d="M0 1462h430l250 -542l252 542h428l-481 -891v-571h-398v559zM268 1751q0 75 46 116.5t124 41.5q79 0 125.5 -42.5t46.5 -115.5q0 -72 -46.5 -114t-125.5 -42q-78 0 -124 40.5t-46 115.5zM747 1751q0 75 45.5 116.5t126.5 41.5t127 -43t46 -115t-46 -114t-127 -42 t-126.5 41.5t-45.5 114.5z" />
<glyph unicode="&#x2c6;" horiz-adv-x="1237" d="M164 1241v29q69 64 144 153q38 45 66.5 81t47.5 65h393q48 -69 111.5 -143.5t144.5 -155.5v-29h-254q-84 48 -201 150q-123 -105 -194 -150h-258z" />
<glyph unicode="&#x2dc;" horiz-adv-x="1225" d="M176 1237q11 175 72 258.5t180 83.5q38 0 81 -15t87 -33t87 -33t81 -15q29 0 46 25t26 73h182q-11 -168 -74 -255t-172 -87q-45 0 -90.5 15t-89.5 33t-85.5 33t-78.5 15q-54 0 -72 -98h-180z" />
<glyph unicode="&#x2000;" horiz-adv-x="959" />
<glyph unicode="&#x2001;" horiz-adv-x="1919" />
<glyph unicode="&#x2002;" horiz-adv-x="959" />
<glyph unicode="&#x2003;" horiz-adv-x="1919" />
<glyph unicode="&#x2004;" horiz-adv-x="639" />
<glyph unicode="&#x2005;" horiz-adv-x="479" />
<glyph unicode="&#x2006;" horiz-adv-x="319" />
<glyph unicode="&#x2007;" horiz-adv-x="319" />
<glyph unicode="&#x2008;" horiz-adv-x="239" />
<glyph unicode="&#x2009;" horiz-adv-x="383" />
<glyph unicode="&#x200a;" horiz-adv-x="106" />
<glyph unicode="&#x2010;" horiz-adv-x="651" d="M43 393v312h565v-312h-565z" />
<glyph unicode="&#x2011;" horiz-adv-x="651" d="M43 393v312h565v-312h-565z" />
<glyph unicode="&#x2012;" horiz-adv-x="651" d="M43 393v312h565v-312h-565z" />
<glyph unicode="&#x2013;" horiz-adv-x="1024" d="M74 414v276h876v-276h-876z" />
<glyph unicode="&#x2014;" horiz-adv-x="2048" d="M74 414v276h1896v-276h-1896z" />
<glyph unicode="&#x2018;" horiz-adv-x="512" d="M20 899q100 391 177 561h278q-34 -157 -58 -301.5t-40 -281.5h-342z" />
<glyph unicode="&#x2019;" horiz-adv-x="512" d="M37 877q34 159 58.5 304t39.5 279h342l15 -22q-92 -366 -177 -561h-278z" />
<glyph unicode="&#x201a;" horiz-adv-x="633" d="M57 -285q14 69 29 146t29 163q15 87 25.5 155t15.5 120h342l14 -23q-49 -192 -92.5 -331t-83.5 -230h-279z" />
<glyph unicode="&#x201c;" horiz-adv-x="1022" d="M20 899q100 391 177 561h278q-34 -157 -58 -301.5t-40 -281.5h-342zM530 899q100 391 177 561h278q-34 -157 -58 -301.5t-40 -281.5h-342z" />
<glyph unicode="&#x201d;" horiz-adv-x="1022" d="M37 877q34 159 58.5 304t39.5 279h342l15 -22q-92 -366 -177 -561h-278zM547 877q34 159 58.5 304t39.5 279h342l14 -22q-47 -186 -90.5 -325.5t-85.5 -235.5h-278z" />
<glyph unicode="&#x201e;" horiz-adv-x="1143" d="M57 -285q14 69 29 146t29 163q15 87 25.5 155t15.5 120h342l14 -23q-49 -192 -92.5 -331t-83.5 -230h-279zM567 -285q14 69 29 146t29 163q15 87 25.5 155t15.5 120h342l14 -23q-49 -192 -92.5 -331t-83.5 -230h-279z" />
<glyph unicode="&#x2022;" horiz-adv-x="803" d="M74 748q0 175 84 267.5t243 92.5t243.5 -94t84.5 -266q0 -86 -22.5 -153t-64.5 -113.5t-103 -70.5t-138 -24q-156 0 -241.5 92.5t-85.5 268.5z" />
<glyph unicode="&#x2026;" horiz-adv-x="1776" d="M86 166q0 93 54 142.5t159 49.5q100 0 152.5 -49.5t52.5 -142.5q0 -91 -54 -141t-151 -50q-100 0 -156.5 50t-56.5 141zM678 166q0 93 54 142.5t159 49.5q100 0 152.5 -49.5t52.5 -142.5q0 -91 -54 -141t-151 -50q-100 0 -156.5 50t-56.5 141zM1270 166q0 93 54 142.5 t159 49.5q100 0 152.5 -49.5t52.5 -142.5q0 -91 -54 -141t-151 -50q-100 0 -156.5 50t-56.5 141z" />
<glyph unicode="&#x202f;" horiz-adv-x="383" />
<glyph unicode="&#x2039;" horiz-adv-x="819" d="M74 561v27l389 483l280 -149l-272 -347l272 -348l-280 -147z" />
<glyph unicode="&#x203a;" horiz-adv-x="819" d="M76 227l272 348l-272 347l282 149l387 -483v-27l-387 -481z" />
<glyph unicode="&#x205f;" horiz-adv-x="479" />
<glyph unicode="&#x20ac;" d="M55 467v205h129l-2 21v22l2 43h-129v205h148q51 255 212.5 387.5t413.5 132.5q181 0 349 -76l-119 -299q-120 51 -230 51q-112 0 -171.5 -53t-71.5 -143h338v-205h-353l-2 -29v-14l2 -44v1h287v-205h-264q33 -164 260 -164q146 0 266 55v-323q-101 -55 -291 -55 q-126 0 -229.5 32t-182 94t-130.5 153t-76 208h-156z" />
<glyph unicode="&#x2122;" horiz-adv-x="1577" d="M37 1286v176h536v-176h-170v-545h-196v545h-170zM645 741v721h287l137 -479l150 479h276v-721h-195v400q0 34 1.5 61.5t5.5 48.5h-9l-151 -510h-164l-143 510h-9q4 -28 5.5 -55.5t1.5 -54.5v-400h-193z" />
<glyph unicode="&#x25fc;" horiz-adv-x="1135" d="M0 0v1135h1135v-1135h-1135z" />
<glyph unicode="&#xfb01;" horiz-adv-x="1511" d="M45 840v192l158 96v19q0 225 91 322q92 98 294 98q78 0 147 -12q70 -12 162 -42l-84 -253q-74 20 -141 20q-45 0 -65.5 -27t-20.5 -90v-30h241v-293h-241v-840h-391v840h-150zM973 1415q0 88 49 131t158 43t159 -43.5t50 -130.5q0 -172 -209 -172q-207 0 -207 172zM983 0 v1133h391v-1133h-391z" />
<glyph unicode="&#xfb02;" horiz-adv-x="1507" d="M45 840v192l158 96v19q0 225 91 322q92 98 294 98q78 0 147 -12q70 -12 162 -42l-84 -253q-74 20 -141 20q-45 0 -65.5 -27t-20.5 -90v-30h241v-293h-241v-840h-391v840h-150zM981 0v1556h391v-1556h-391z" />
<glyph unicode="&#xfb03;" horiz-adv-x="2357" d="M45 840v192l158 96v19q0 225 91 322q92 98 294 98q78 0 147 -12q70 -12 162 -42l-84 -253q-74 20 -141 20q-45 0 -65.5 -27t-20.5 -90v-30h241v-293h-241v-840h-391v840h-150zM891 840v192l158 96v19q0 225 91 322q92 98 294 98q78 0 147 -12q70 -12 162 -42l-84 -253 q-74 20 -141 20q-45 0 -65.5 -27t-20.5 -90v-30h241v-293h-241v-840h-391v840h-150zM1819 1415q0 88 49 131t158 43t159 -43.5t50 -130.5q0 -172 -209 -172q-207 0 -207 172zM1829 0v1133h391v-1133h-391z" />
<glyph unicode="&#xfb04;" horiz-adv-x="2353" d="M45 840v192l158 96v19q0 225 91 322q92 98 294 98q78 0 147 -12q70 -12 162 -42l-84 -253q-74 20 -141 20q-45 0 -65.5 -27t-20.5 -90v-30h241v-293h-241v-840h-391v840h-150zM891 840v192l158 96v19q0 225 91 322q92 98 294 98q78 0 147 -12q70 -12 162 -42l-84 -253 q-74 20 -141 20q-45 0 -65.5 -27t-20.5 -90v-30h241v-293h-241v-840h-391v840h-150zM1827 0v1556h391v-1556h-391z" />
</font>
</defs>
</svg>
